<svg xmlns="http://www.w3.org/2000/svg" viewBox="0 0 48 48">
  <rect width="48" height="48" fill="#00AEF0"/>
  <path d="M33.5 22.5c0-4.4-3.6-8-8-8-3.7 0-6.8 2.5-7.7 5.9-.5-.2-1-.3-1.5-.3-2.6 0-4.8 2.1-4.8 4.8 0 2.6 2.1 4.8 4.8 4.8h17.2c2.2 0 4-1.8 4-4s-1.8-4-4-4z" fill="#fff"/>
  <path d="M22.5 28h5l-.4 3.8c-.1.7.4 1.3 1.1 1.3h1.6c.7 0 1.2-.6 1.1-1.3L30.5 28h.2c.8 0 1.4-.6 1.4-1.4v-.6c0-.8-.6-1.4-1.4-1.4h-6.4c-.8 0-1.4.6-1.4 1.4v.6c0 .8.6 1.4 1.4 1.4h.2zm3-5.7c-.4 0-.7-.3-.7-.7s.3-.7.7-.7.7.3.7.7-.3.7-.7.7z" fill="#00AEF0"/>
  <text x="25.9" y="27.4" text-anchor="middle" font-family="system-ui,-apple-system,sans-serif" font-size="4.2" font-weight="700" fill="#00AEF0">$</text>
</svg>
